<?xml version="1.0" standalone="no"?>
<!DOCTYPE svg PUBLIC "-//W3C//DTD SVG 20010904//EN"
 "http://www.w3.org/TR/2001/REC-SVG-20010904/DTD/svg10.dtd">
<svg version="1.0" xmlns="http://www.w3.org/2000/svg"
 width="700.000000pt" height="700.000000pt" viewBox="0 0 700.000000 700.000000"
 preserveAspectRatio="xMidYMid meet">
<metadata>
Created by potrace 1.14, written by Peter Selinger 2001-2017
</metadata>
<g transform="translate(0.000000,700.000000) scale(0.100000,-0.100000)"
fill="#000000" stroke="none">
<path d="M3754 6967 c-5 -13 -44 -21 -44 -9 0 9 -427 8 -436 -1 -4 -4 -14 -1
-22 6 -9 6 -13 7 -9 1 4 -7 -11 -11 -45 -13 -29 -1 -54 -4 -56 -6 -3 -3 -12 1
-20 8 -13 10 -14 9 -8 -2 7 -11 0 -13 -32 -9 -22 2 -38 0 -36 -4 3 -5 -10 -9
-28 -9 -73 -3 -87 -5 -94 -12 -4 -4 -14 -1 -22 6 -13 9 -14 9 -8 0 5 -9 1 -13
-11 -14 -10 0 -25 -2 -33 -4 -28 -7 -75 -17 -95 -19 -11 -2 -40 -8 -64 -15
-23 -7 -50 -10 -58 -7 -9 4 -11 2 -7 -6 5 -7 0 -9 -14 -6 -12 4 -22 3 -22 -1
0 -11 -90 -32 -103 -25 -7 4 -9 4 -5 -1 12 -13 -185 -75 -200 -63 -9 8 -11 7
-7 -4 6 -16 -20 -32 -36 -22 -5 3 -9 1 -9 -4 0 -9 -47 -27 -62 -24 -5 1 -8 -3
-8 -8 0 -6 -5 -10 -11 -10 -5 0 -31 -10 -57 -22 -26 -11 -53 -21 -59 -21 -7 0
-13 -5 -13 -10 0 -5 -7 -6 -16 -3 -10 4 -13 2 -8 -6 5 -8 2 -9 -10 -5 -9 4
-15 3 -12 -1 6 -11 -102 -64 -115 -56 -5 3 -8 2 -7 -3 2 -4 0 -8 -3 -8 -4 0
-15 -7 -25 -15 -11 -9 -32 -22 -49 -30 -16 -8 -32 -18 -35 -21 -6 -8 -68 -40
-75 -39 -4 1 -15 -9 -26 -22 -11 -13 -18 -16 -14 -8 5 12 4 12 -7 -1 -7 -9
-33 -28 -58 -44 -25 -15 -58 -39 -73 -52 -16 -13 -34 -20 -40 -16 -7 3 -9 3
-5 -2 4 -4 -6 -18 -21 -31 -31 -26 -47 -31 -35 -12 4 7 3 8 -5 4 -6 -4 -9 -11
-6 -16 3 -4 -20 -26 -50 -49 -29 -22 -65 -52 -80 -66 -14 -15 -30 -23 -37 -19
-6 4 -8 3 -5 -3 9 -14 -19 -37 -34 -27 -8 4 -9 3 -5 -5 8 -12 -14 -37 -67 -75
-14 -11 -23 -24 -20 -30 4 -5 -1 -7 -11 -3 -9 4 -15 3 -12 -2 3 -5 -14 -27
-39 -50 -25 -23 -45 -44 -45 -48 0 -3 -18 -24 -41 -46 -22 -22 -47 -51 -56
-63 -8 -13 -20 -21 -26 -17 -5 3 -7 2 -4 -4 3 -5 -4 -20 -16 -34 -12 -13 -40
-48 -61 -77 -21 -28 -42 -50 -47 -47 -5 4 -7 0 -4 -7 3 -7 -12 -31 -32 -52
-21 -22 -31 -36 -23 -31 8 5 6 -2 -6 -16 -11 -13 -34 -45 -51 -71 -17 -26 -33
-44 -37 -40 -4 3 -4 -1 -1 -9 3 -9 -5 -27 -19 -42 -14 -15 -22 -27 -19 -27 3
0 1 -6 -4 -12 -6 -7 -27 -44 -48 -83 -20 -38 -42 -74 -49 -80 -6 -5 -11 -14
-11 -20 0 -23 -49 -114 -58 -108 -6 3 -7 1 -3 -5 3 -5 -9 -43 -28 -84 -33 -73
-49 -114 -51 -133 0 -5 -6 -9 -13 -8 -6 2 -9 -4 -6 -11 3 -8 -1 -28 -10 -44
-8 -16 -12 -32 -9 -36 4 -3 2 -6 -4 -6 -5 0 -10 -6 -10 -12 0 -18 -55 -192
-62 -198 -3 -3 -7 -18 -8 -34 -1 -16 -5 -37 -9 -45 -4 -9 -8 -27 -10 -40 -2
-13 -6 -31 -10 -40 -4 -9 -8 -27 -10 -41 -2 -14 -6 -41 -10 -60 -8 -41 -9 -44
-25 -137 -8 -48 -15 -70 -23 -66 -6 4 -5 0 2 -9 7 -8 10 -22 7 -30 -3 -7 -7
-34 -8 -58 -3 -37 -7 -45 -23 -43 -18 1 -18 1 -1 -11 20 -16 25 -82 5 -70 -10
5 -10 4 -1 -6 8 -8 9 -20 3 -36 -6 -14 -6 -26 0 -29 6 -3 6 -15 0 -30 -5 -14
-7 -25 -4 -25 4 0 0 -8 -7 -17 -8 -9 -9 -14 -4 -11 7 5 10 -37 10 -125 0 -73
2 -146 6 -163 3 -17 2 -39 -3 -48 -6 -10 -5 -16 1 -16 11 0 9 -19 -3 -39 -6
-10 -5 -12 2 -7 12 7 13 -3 16 -127 1 -20 4 -37 9 -37 4 0 7 -7 7 -16 0 -9 -5
-12 -12 -8 -10 6 -10 5 -1 -7 6 -8 13 -27 16 -44 3 -16 10 -59 17 -94 6 -35 9
-70 6 -78 -3 -8 -1 -11 4 -8 6 3 10 0 11 -7 0 -7 3 -24 5 -38 3 -14 6 -37 7
-52 1 -16 5 -28 9 -28 7 0 24 -88 20 -102 -1 -5 3 -8 8 -8 6 0 10 -6 10 -14 0
-8 13 -54 29 -104 16 -49 31 -98 33 -108 2 -10 6 -21 9 -24 12 -11 39 -92 34
-101 -4 -5 -2 -9 4 -9 9 0 37 -68 33 -82 -1 -5 2 -8 7 -8 8 0 37 -70 32 -78
-1 -1 6 -10 14 -19 9 -9 14 -24 12 -34 -3 -10 -2 -17 2 -16 3 1 7 -2 8 -7 1
-5 5 -12 10 -15 17 -13 73 -132 67 -143 -4 -6 -3 -8 4 -4 13 8 65 -82 55 -97
-3 -6 -1 -7 5 -3 13 8 36 -30 27 -44 -4 -6 -1 -9 6 -8 7 2 17 -7 24 -18 6 -12
17 -29 24 -37 7 -9 10 -21 6 -27 -4 -6 -3 -9 2 -8 4 2 10 -1 13 -7 2 -5 13
-20 25 -31 11 -12 27 -31 35 -44 8 -12 34 -47 57 -78 23 -31 39 -61 36 -66 -4
-5 -1 -6 5 -2 13 8 44 -33 35 -47 -3 -6 -1 -7 4 -4 11 7 90 -82 85 -96 -1 -5
1 -6 6 -3 10 6 43 -30 35 -38 -4 -3 1 -6 11 -6 9 0 15 -4 11 -9 -3 -5 4 -13
16 -16 12 -4 18 -12 15 -21 -3 -7 -2 -13 3 -11 11 3 167 -144 164 -155 -2 -4
3 -8 10 -8 17 0 93 -70 89 -82 -1 -5 2 -7 6 -4 9 5 134 -88 140 -105 2 -5 7
-9 12 -9 4 0 43 -25 86 -55 44 -30 96 -64 117 -75 20 -11 37 -25 37 -31 0 -6
5 -7 10 -4 6 3 10 1 10 -4 0 -6 7 -11 16 -11 9 0 12 -5 8 -12 -4 -6 -3 -8 4
-4 6 3 33 -7 60 -24 27 -16 54 -30 61 -30 6 0 11 -3 11 -7 0 -5 29 -21 65 -37
35 -16 63 -32 61 -35 -2 -3 8 -7 22 -8 15 0 28 -6 30 -12 2 -6 10 -11 18 -11
9 0 13 -4 10 -8 -2 -4 7 -9 21 -10 14 -1 31 -6 37 -10 6 -5 34 -17 61 -27 28
-10 56 -26 63 -34 8 -9 11 -10 7 -3 -7 14 11 17 20 2 3 -5 15 -10 26 -10 10 0
19 -4 19 -8 0 -5 7 -9 15 -9 16 0 151 -41 177 -54 10 -5 29 -9 42 -9 14 0 27
-4 30 -8 3 -5 37 -15 75 -22 39 -7 69 -16 67 -19 -2 -3 8 -7 22 -7 15 -1 38
-4 52 -7 14 -3 46 -9 72 -13 26 -3 46 -9 44 -13 -2 -3 28 -7 67 -9 39 -1 74
-6 77 -10 3 -4 28 -7 55 -8 94 -2 185 -9 185 -14 0 -3 45 -5 100 -5 63 1 100
-3 100 -10 0 -7 3 -7 8 0 11 16 65 13 80 -5 11 -13 11 -13 7 0 -4 13 7 16 61
18 37 2 72 6 77 9 6 4 7 1 2 -8 -7 -12 -6 -12 7 -1 12 9 18 10 23 2 4 -7 11
-8 18 -1 16 12 89 17 106 6 10 -5 12 -4 7 3 -5 8 4 12 26 13 18 0 40 2 48 4 8
1 35 6 60 10 121 18 141 21 168 29 22 6 92 18 115 19 9 1 17 4 17 7 0 6 25 11
67 14 11 0 19 4 16 9 -7 12 42 8 57 -6 12 -10 12 -9 2 4 -10 13 -6 17 25 27
20 6 40 9 45 6 4 -3 8 0 8 7 0 7 3 10 6 6 4 -3 19 0 35 8 16 9 32 14 36 13 4
-1 26 6 48 16 22 10 50 19 62 19 13 1 23 5 23 8 0 3 12 11 27 18 21 10 28 9
34 -1 7 -10 9 -9 9 5 0 9 4 17 9 17 5 0 44 16 86 35 42 20 81 32 87 29 6 -4 8
-3 5 3 -4 6 0 14 9 17 22 9 26 8 18 -6 -4 -7 -3 -8 5 -4 6 4 9 11 7 14 -2 4
23 21 57 37 34 17 64 33 65 38 2 4 8 5 13 1 5 -3 9 -1 9 5 0 5 10 13 23 17 12
3 34 15 50 26 15 11 27 17 27 14 0 -3 8 1 18 10 29 26 152 104 152 96 0 -4 4
-1 8 5 14 22 105 82 115 76 6 -3 7 -1 4 4 -9 15 19 36 35 27 7 -4 10 -4 6 1
-4 4 2 16 13 26 17 14 26 16 43 8 19 -9 20 -9 3 4 -16 13 -13 18 38 57 30 23
55 47 55 52 0 6 7 8 15 4 8 -3 14 -2 13 2 -3 10 295 307 304 304 5 -1 7 1 7 6
-4 21 2 34 14 29 8 -3 14 0 14 7 0 6 19 37 43 68 37 48 47 55 60 45 13 -10 13
-10 3 3 -9 12 -6 23 16 52 16 21 32 34 36 30 5 -4 5 -2 2 4 -8 14 41 86 53 79
6 -3 7 1 4 9 -3 9 -2 16 2 16 5 0 15 13 22 29 7 16 24 42 37 57 14 16 25 32
25 36 0 4 17 36 38 70 21 35 47 80 56 100 10 21 23 35 29 31 5 -3 7 -1 4 5 -9
14 3 43 14 36 5 -3 6 3 2 12 -5 13 -3 15 7 9 8 -5 11 -4 6 3 -9 14 25 83 37
75 6 -3 7 -1 3 5 -3 5 7 39 23 74 16 34 40 92 54 128 13 36 28 74 32 85 5 11
9 25 10 31 11 47 17 55 33 42 15 -12 16 -11 3 4 -8 11 -11 28 -6 45 4 19 9 23
15 14 5 -9 7 -1 5 20 -3 41 4 61 18 52 6 -3 7 -1 3 6 -9 13 2 73 12 67 4 -2 8
8 9 22 2 35 10 75 40 197 2 11 7 36 10 55 3 19 9 55 13 80 5 24 6 48 4 52 -3
5 -2 8 3 8 4 0 8 10 9 23 1 12 5 58 9 102 5 44 9 99 9 123 0 23 3 42 6 42 3 0
5 61 5 135 0 83 4 135 10 135 6 0 6 3 -1 8 -5 4 -10 27 -10 52 1 25 -2 58 -6
74 -5 18 -3 35 3 43 7 7 7 13 2 13 -9 0 -16 62 -17 153 -1 20 -3 37 -6 37 -3
0 -7 15 -8 33 -3 38 -9 73 -23 145 -6 30 -9 63 -6 73 3 10 1 17 -3 14 -16 -10
-16 30 -1 50 15 19 15 19 -3 5 -18 -14 -19 -13 -14 7 3 12 1 24 -4 25 -6 2
-11 22 -13 44 -1 22 -7 48 -12 59 -6 11 -14 36 -18 55 -4 19 -11 40 -15 45 -5
6 -10 24 -11 40 -2 17 -7 33 -12 36 -4 3 -9 19 -11 36 -3 17 -9 41 -16 52 -6
12 -8 27 -4 33 4 7 3 8 -4 4 -11 -7 -16 8 -15 42 1 7 -2 11 -5 8 -7 -7 -33 60
-36 92 -2 13 -7 27 -13 30 -17 12 -35 53 -29 68 4 10 2 12 -6 8 -8 -5 -9 -2
-5 10 4 9 3 15 -2 12 -5 -3 -16 13 -26 37 -9 23 -23 49 -30 57 -8 8 -14 18
-14 23 0 4 -12 30 -26 57 -14 27 -25 53 -24 56 0 4 -3 10 -8 13 -5 3 -24 30
-41 59 -28 46 -31 56 -20 70 12 15 11 15 -4 4 -14 -11 -18 -10 -28 8 -6 12 -9
28 -6 35 3 9 0 12 -9 9 -7 -3 -16 3 -20 15 -3 12 -11 21 -16 21 -5 0 -9 6 -9
14 0 7 -7 19 -15 26 -9 7 -13 15 -11 17 3 3 -5 15 -17 27 -12 12 -31 35 -42
50 -11 16 -30 41 -43 57 -13 16 -21 33 -17 39 4 6 3 9 -2 8 -4 -2 -9 1 -10 7
-1 5 -11 13 -23 17 -14 5 -20 14 -16 23 3 8 2 14 -3 12 -4 -1 -30 22 -57 52
-27 30 -63 70 -81 90 -17 19 -30 38 -27 43 3 4 -2 5 -10 2 -9 -3 -16 -1 -16 4
0 10 -29 39 -125 128 -16 15 -29 32 -27 36 1 4 -4 8 -10 8 -7 0 -34 19 -61 43
-26 23 -77 65 -113 92 -37 28 -75 58 -85 68 -11 9 -21 17 -24 17 -14 0 -64 44
-59 51 3 5 -2 6 -10 3 -9 -3 -16 -1 -16 5 0 6 -7 11 -15 11 -7 0 -18 6 -22 14
-4 8 -12 16 -18 18 -5 2 -9 6 -8 10 2 4 -3 5 -11 2 -7 -3 -20 1 -27 9 -16 15
-91 61 -127 77 -14 6 -20 15 -16 22 4 7 3 8 -5 4 -6 -4 -26 0 -44 10 -17 9
-49 25 -69 36 -21 10 -38 23 -38 29 0 6 -4 8 -9 5 -13 -8 -62 19 -53 29 4 5 2
5 -4 2 -7 -4 -56 13 -111 37 -54 24 -118 50 -141 57 -23 6 -42 15 -42 18 0 4
-11 8 -25 9 -14 1 -39 9 -55 17 -16 9 -31 15 -32 14 -8 -5 -128 37 -128 44 0
4 -4 5 -10 2 -5 -3 -38 1 -72 10 -121 31 -133 34 -168 40 -19 4 -42 8 -50 10
-8 2 -25 4 -38 4 -13 1 -21 5 -18 9 2 4 -15 7 -40 6 -24 -1 -44 1 -44 5 0 3
-15 6 -32 6 -54 -1 -152 16 -167 28 -12 10 -13 9 -7 -1 6 -10 2 -13 -15 -10
-13 2 -23 9 -21 16 3 16 -7 16 -14 -1z"/>
<path d="M6493 5275 c0 -8 4 -12 9 -9 5 3 6 10 3 15 -9 13 -12 11 -12 -6z"/>
<path d="M46 4058 c3 -5 10 -6 15 -3 13 9 11 12 -6 12 -8 0 -12 -4 -9 -9z"/>
<path d="M6973 3195 c0 -8 4 -12 9 -9 5 3 6 10 3 15 -9 13 -12 11 -12 -6z"/>
</g>
</svg>
